<svg width="212" height="68" viewBox="0 0 212 68" fill="none" xmlns="http://www.w3.org/2000/svg">
<rect x="0.5" y="0.5" width="211" height="67" rx="4.5" stroke="#9747FF" stroke-dasharray="10 5"/>
<g clip-path="url(#clip0_2_1320)">
<rect x="122" y="33" width="3" height="10" fill="#65D36E"/>
<rect x="126" y="25" width="3" height="18" fill="#65D36E"/>
<rect x="130" y="29" width="3" height="14" fill="#65D36E"/>
<rect x="134" y="38" width="3" height="5" fill="#65D36E"/>
</g>
<g clip-path="url(#clip1_2_1320)">
<rect x="170" y="39" width="3" height="4" fill="#65D36E"/>
<rect x="174" y="29" width="3" height="14" fill="#65D36E"/>
<rect x="178" y="34" width="3" height="9" fill="#65D36E"/>
<rect x="182" y="26" width="3" height="17" fill="#65D36E"/>
</g>
<g clip-path="url(#clip2_2_1320)">
<rect x="74" y="37" width="3" height="6" fill="#65D36E"/>
<rect x="78" y="32" width="3" height="11" fill="#65D36E"/>
<rect x="82" y="25" width="3" height="18" fill="#65D36E"/>
<rect x="86" y="34" width="3" height="9" fill="#65D36E"/>
</g>
<g clip-path="url(#clip3_2_1320)">
<rect x="26" y="25" width="3" height="18" fill="#65D36E"/>
<rect x="30" y="39" width="3" height="4" fill="#65D36E"/>
<rect x="34" y="29" width="3" height="14" fill="#65D36E"/>
<rect x="38" y="39" width="3" height="4" fill="#65D36E"/>
</g>
<defs>
<clipPath id="clip0_2_1320">
<rect width="28" height="28" fill="white" transform="translate(116 20)"/>
</clipPath>
<clipPath id="clip1_2_1320">
<rect width="28" height="28" fill="white" transform="translate(164 20)"/>
</clipPath>
<clipPath id="clip2_2_1320">
<rect width="28" height="28" fill="white" transform="translate(68 20)"/>
</clipPath>
<clipPath id="clip3_2_1320">
<rect width="28" height="28" fill="white" transform="translate(20 20)"/>
</clipPath>
</defs>
</svg>
