<svg width="292" height="88" viewBox="0 0 292 88" fill="none" xmlns="http://www.w3.org/2000/svg">
<rect x="0.5" y="0.5" width="291" height="87" rx="4.5" stroke="#9747FF" stroke-dasharray="10 5"/>
<path fill-rule="evenodd" clip-rule="evenodd" d="M200 44C200 55.0457 191.046 64 180 64C168.954 64 160 55.0457 160 44C160 32.9543 168.954 24 180 24C191.046 24 200 32.9543 200 44ZM173 36C173 35.4477 173.448 35 174 35H177C177.552 35 178 35.4477 178 36V52C178 52.5523 177.552 53 177 53H174C173.448 53 173 52.5523 173 52V36ZM183 35C182.448 35 182 35.4477 182 36V52C182 52.5523 182.448 53 183 53H186C186.552 53 187 52.5523 187 52V36C187 35.4477 186.552 35 186 35H183Z" fill="white"/>
<path fill-rule="evenodd" clip-rule="evenodd" d="M270 44C270 56.1503 260.15 66 248 66C235.85 66 226 56.1503 226 44C226 31.8497 235.85 22 248 22C260.15 22 270 31.8497 270 44ZM240.3 35.1C240.3 34.5477 240.748 34.1 241.3 34.1H244.8C245.352 34.1 245.8 34.5477 245.8 35.1V52.9C245.8 53.4523 245.352 53.9 244.8 53.9H241.3C240.748 53.9 240.3 53.4523 240.3 52.9V35.1ZM251.2 34.1C250.648 34.1 250.2 34.5477 250.2 35.1V52.9C250.2 53.4523 250.648 53.9 251.2 53.9H254.7C255.252 53.9 255.7 53.4523 255.7 52.9V35.1C255.7 34.5477 255.252 34.1 254.7 34.1H251.2Z" fill="white"/>
<path fill-rule="evenodd" clip-rule="evenodd" d="M44 64C55.0457 64 64 55.0457 64 44C64 32.9543 55.0457 24 44 24C32.9543 24 24 32.9543 24 44C24 55.0457 32.9543 64 44 64ZM38.5 35.1262L53.5 43.1933C54.1667 43.5518 54.1667 44.4482 53.5 44.8067L38.5 52.8738C37.8333 53.2323 37 52.7842 37 52.0671V35.9329C37 35.2158 37.8333 34.7677 38.5 35.1262Z" fill="white"/>
<path fill-rule="evenodd" clip-rule="evenodd" d="M112 66C124.15 66 134 56.1503 134 44C134 31.8497 124.15 22 112 22C99.8497 22 90 31.8497 90 44C90 56.1503 99.8497 66 112 66ZM105.95 34.2388L122.45 43.1126C123.183 43.507 123.183 44.493 122.45 44.8874L105.95 53.7612C105.217 54.1556 104.3 53.6626 104.3 52.8738V35.1262C104.3 34.3374 105.217 33.8444 105.95 34.2388Z" fill="white"/>
</svg>
