<svg width="228" height="72" viewBox="0 0 228 72" fill="none" xmlns="http://www.w3.org/2000/svg">
<rect x="0.5" y="0.5" width="227" height="71" rx="4.5" stroke="#9747FF" stroke-dasharray="10 5"/>
<path opacity="0.8" fill-rule="evenodd" clip-rule="evenodd" d="M80 27C79.4477 27 79 27.4477 79 28V44C79 44.5523 79.4477 45 80 45H82C82.5523 45 83 44.5523 83 44V38.1512L95.5 44.8738C96.1667 45.2323 97 44.7842 97 44.0671V27.9329C97 27.2158 96.1667 26.7677 95.5 27.1262L83 33.8488V28C83 27.4477 82.5523 27 82 27H80Z" fill="white"/>
<path fill-rule="evenodd" clip-rule="evenodd" d="M28 27C27.4477 27 27 27.4477 27 28V44C27 44.5523 27.4477 45 28 45H30C30.5523 45 31 44.5523 31 44V38.1512L43.5 44.8738C44.1667 45.2323 45 44.7842 45 44.0671V27.9329C45 27.2158 44.1667 26.7677 43.5 27.1262L31 33.8488V28C31 27.4477 30.5523 27 30 27H28Z" fill="white"/>
<path opacity="0.8" fill-rule="evenodd" clip-rule="evenodd" d="M148 27C148.552 27 149 27.4477 149 28V44C149 44.5523 148.552 45 148 45H146C145.448 45 145 44.5523 145 44V38.1512L132.5 44.8738C131.833 45.2323 131 44.7842 131 44.0671V27.9329C131 27.2158 131.833 26.7677 132.5 27.1262L145 33.8488V28C145 27.4477 145.448 27 146 27H148Z" fill="white"/>
<path fill-rule="evenodd" clip-rule="evenodd" d="M200 27C200.552 27 201 27.4477 201 28V44C201 44.5523 200.552 45 200 45H198C197.448 45 197 44.5523 197 44V38.1512L184.5 44.8738C183.833 45.2323 183 44.7842 183 44.0671V27.9329C183 27.2158 183.833 26.7677 184.5 27.1262L197 33.8488V28C197 27.4477 197.448 27 198 27H200Z" fill="white"/>
</svg>
