<svg width="50" height="50" viewBox="0 0 50 50" fill="none" xmlns="http://www.w3.org/2000/svg">
<path d="M10.4166 35.4167H37.5C42.1023 35.4167 45.8333 31.6857 45.8333 27.0833C45.8333 23.1747 43.1423 19.8945 39.5119 18.9945C39.5591 18.5723 39.5833 18.1431 39.5833 17.7083C39.5833 11.3801 34.4532 6.25 28.125 6.25C22.8761 6.25 18.4516 9.77923 17.0949 14.5941C16.953 14.587 16.8103 14.5833 16.6666 14.5833C12.0643 14.5833 8.33329 18.3143 8.33329 22.9167C8.33329 23.0349 8.33576 23.1526 8.34064 23.2697C5.90931 24.1256 4.16663 26.4426 4.16663 29.1667C4.16663 32.6184 6.96485 35.4167 10.4166 35.4167Z" fill="white"/>
<path d="M10.4166 39.5833C9.26603 39.5833 8.33329 40.5161 8.33329 41.6667C8.33329 42.8173 9.26603 43.75 10.4166 43.75H39.5833C40.7339 43.75 41.6666 42.8173 41.6666 41.6667C41.6666 40.5161 40.7339 39.5833 39.5833 39.5833H10.4166Z" fill="white"/>
</svg>
