<svg width="50" height="50" viewBox="0 0 50 50" fill="none" xmlns="http://www.w3.org/2000/svg">
<path d="M10.4167 35.4167H37.5001C42.1025 35.4167 45.8334 31.6857 45.8334 27.0833C45.8334 23.1747 43.1424 19.8945 39.512 18.9945C39.5592 18.5723 39.5834 18.1431 39.5834 17.7083C39.5834 11.3801 34.4533 6.25 28.1251 6.25C22.8762 6.25 18.4517 9.77923 17.095 14.5941C16.9532 14.587 16.8104 14.5833 16.6667 14.5833C12.0644 14.5833 8.33342 18.3143 8.33342 22.9167C8.33342 23.0349 8.33588 23.1526 8.34076 23.2697C5.90944 24.1256 4.16675 26.4426 4.16675 29.1667C4.16675 32.6184 6.96497 35.4167 10.4167 35.4167Z" fill="white"/>
<path d="M19.4623 37.5C20.1369 37.5 20.6131 38.1608 20.3998 38.8007L18.9753 43.0743C18.8408 43.4778 18.4632 43.75 18.0378 43.75C17.3633 43.75 16.887 43.0892 17.1003 42.4493L18.5248 38.1757C18.6594 37.7722 19.037 37.5 19.4623 37.5Z" fill="white"/>
<path d="M23.629 37.5C23.2037 37.5 22.826 37.7722 22.6915 38.1757L21.267 42.4493C21.0537 43.0892 21.53 43.75 22.2045 43.75C22.6298 43.75 23.0075 43.4778 23.142 43.0743L24.5665 38.8007C24.7798 38.1608 24.3035 37.5 23.629 37.5Z" fill="white"/>
<path d="M27.7957 37.5C28.4702 37.5 28.9465 38.1608 28.7332 38.8007L27.3087 43.0743C27.1741 43.4778 26.7965 43.75 26.3712 43.75C25.6966 43.75 25.2204 43.0892 25.4337 42.4493L26.8582 38.1757C26.9927 37.7722 27.3703 37.5 27.7957 37.5Z" fill="white"/>
<path d="M31.9623 37.5C32.6369 37.5 33.1131 38.1608 32.8998 38.8007L31.4753 43.0743C31.3408 43.4778 30.9632 43.75 30.5378 43.75C29.8633 43.75 29.387 43.0892 29.6003 42.4493L31.0248 38.1757C31.1594 37.7722 31.537 37.5 31.9623 37.5Z" fill="white"/>
</svg>
