<svg width="50" height="50" viewBox="0 0 50 50" fill="none" xmlns="http://www.w3.org/2000/svg">
<path d="M37.5 35.4167H10.4166C6.96485 35.4167 4.16663 32.6184 4.16663 29.1667C4.16663 26.4426 5.90931 24.1256 8.34064 23.2697C8.33576 23.1526 8.33329 23.0349 8.33329 22.9167C8.33329 18.3143 12.0643 14.5833 16.6666 14.5833C16.8103 14.5833 16.953 14.587 17.0949 14.5941C18.4516 9.77923 22.8761 6.25 28.125 6.25C34.4532 6.25 39.5833 11.3801 39.5833 17.7083C39.5833 18.1431 39.5591 18.5723 39.5119 18.9945C43.1423 19.8945 45.8333 23.1747 45.8333 27.0833C45.8333 31.6857 42.1023 35.4167 37.5 35.4167Z" fill="white"/>
<path d="M17.6005 45.8333H19.8994L19.6695 43.287L21.7672 44.7627L22.9166 42.7373L20.6178 41.6667L22.9166 40.5961L21.7672 38.5706L19.6695 40.0463L19.8994 37.5H17.6005L17.8304 40.0463L15.7327 38.5706L14.5833 40.5961L16.8821 41.6667L14.5833 42.7373L15.7327 44.7627L17.8304 43.287L17.6005 45.8333Z" fill="white"/>
<path d="M32.3994 45.8333H30.1005L30.3304 43.287L28.2327 44.7627L27.0833 42.7373L29.3821 41.6667L27.0833 40.5961L28.2327 38.5706L30.3304 40.0463L30.1005 37.5H32.3994L32.1695 40.0463L34.2672 38.5706L35.4166 40.5961L33.1178 41.6667L35.4166 42.7373L34.2672 44.7627L32.1695 43.287L32.3994 45.8333Z" fill="white"/>
</svg>
