<svg width="50" height="50" viewBox="0 0 50 50" fill="none" xmlns="http://www.w3.org/2000/svg">
<path d="M11.4825 8.19635L10.5957 7.30594C9.70896 6.41552 8.27649 6.43836 7.41246 7.30594L7.38972 7.32877C6.50296 8.21918 6.50296 9.65753 7.38972 10.5251L8.27649 11.4155C9.16326 12.3059 10.573 12.3059 11.4598 11.4155L11.4825 11.3927C12.3693 10.5251 12.3693 9.06393 11.4825 8.19635ZM4.57026 22.7169H2.25102C1.00045 22.7169 0 23.7215 0 24.9772V25C0 26.2557 1.00045 27.2603 2.25102 27.2603H4.54752C5.82083 27.2831 6.82128 26.2785 6.82128 25.0228V25C6.82128 23.7215 5.82083 22.7169 4.57026 22.7169ZM25.0341 0H25.0114C23.7381 0 22.7376 1.00457 22.7376 2.26027V4.45205C22.7376 5.70776 23.7381 6.71233 24.9886 6.71233H25.0114C26.2847 6.73516 27.2851 5.73059 27.2851 4.47489V2.26027C27.2851 1.00457 26.2847 0 25.0341 0ZM42.633 7.32877C41.7462 6.43836 40.3138 6.43836 39.427 7.30594L38.5402 8.19635C37.6535 9.08676 37.6535 10.5251 38.5402 11.3927L38.563 11.4155C39.4497 12.3059 40.8822 12.3059 41.7463 11.4155L42.633 10.5251C43.5198 9.6347 43.5198 8.21918 42.633 7.32877ZM38.5175 41.8037L39.4043 42.6941C40.291 43.5845 41.7235 43.5845 42.6103 42.6941C43.497 41.8037 43.497 40.3653 42.6103 39.4749L41.7235 38.5845C40.8367 37.6941 39.4043 37.7169 38.5402 38.5845C37.6307 39.4977 37.6307 40.9132 38.5175 41.8037ZM43.2015 24.9772V25C43.2015 26.2557 44.2019 27.2603 45.4525 27.2603H47.749C48.9995 27.2603 50 26.2557 50 25V24.9772C50 23.7215 48.9995 22.7169 47.749 22.7169H45.4525C44.2019 22.7169 43.2015 23.7215 43.2015 24.9772ZM25.0114 11.3014C17.4852 11.3014 11.3688 17.4429 11.3688 25C11.3688 32.5571 17.4852 38.6986 25.0114 38.6986C32.5375 38.6986 38.6539 32.5571 38.6539 25C38.6539 17.4429 32.5375 11.3014 25.0114 11.3014ZM24.9886 50H25.0114C26.2619 50 27.2624 48.9954 27.2624 47.7397V45.5479C27.2624 44.2922 26.2619 43.2877 25.0114 43.2877H24.9886C23.7381 43.2877 22.7376 44.2922 22.7376 45.5479V47.7397C22.7376 48.9954 23.7381 50 24.9886 50ZM7.38972 42.6712C8.27649 43.5616 9.70896 43.5616 10.5957 42.6712L11.4825 41.7808C12.3693 40.8904 12.3465 39.4521 11.4825 38.5845L11.4598 38.5616C10.573 37.6712 9.14052 37.6712 8.25375 38.5616L7.36698 39.4521C6.50296 40.3653 6.50296 41.7808 7.38972 42.6712Z" fill="white"/>
</svg>
