<svg width="64" height="62" viewBox="0 0 64 62" fill="none" xmlns="http://www.w3.org/2000/svg">
<circle opacity="0.2" cx="31" cy="31" r="31" fill="white"/>
<circle cx="56" cy="10" r="6.75" fill="#4077CA" stroke="black" stroke-width="1.5"/>
<path d="M31 17.25C34.7696 17.25 37.75 20.19 37.75 23.7246C37.7498 25.2547 36.8154 27.4838 35.4199 29.2803C34.6924 30.2169 34.4012 31.4722 34.498 32.5996C34.5944 33.7216 35.1102 34.9889 36.3223 35.6514L41.9082 38.7051C42.0594 38.8415 42.2777 39.0988 42.4668 39.4258C42.5673 39.5996 42.6442 39.7652 42.6934 39.9062C42.7176 39.9759 42.7326 40.0332 42.7412 40.0762C42.749 40.1152 42.7499 40.1351 42.75 40.1377V42.75H19.25V40.1377C19.2501 40.135 19.251 40.1152 19.2588 40.0762C19.2674 40.0332 19.2824 39.9759 19.3066 39.9062C19.3558 39.7652 19.4327 39.5996 19.5332 39.4258C19.722 39.0992 19.9397 38.8416 20.0908 38.7051L25.6777 35.6514C26.8898 34.9889 27.4056 33.7216 27.502 32.5996C27.5988 31.4722 27.3076 30.2169 26.5801 29.2803C25.1846 27.4838 24.2502 25.2547 24.25 23.7246C24.25 20.19 27.2304 17.25 31 17.25Z" stroke="#B3B3B3" stroke-width="2.5"/>
</svg>
