<svg width="32" height="32" viewBox="0 0 32 32" fill="none" xmlns="http://www.w3.org/2000/svg">
<path fill-rule="evenodd" clip-rule="evenodd" d="M10.5833 23.4167L10.5833 26L12.0833 26L12.0833 23.4167H14.6665V21.9167H12.0833L12.0833 19.3333L10.5833 19.3333L10.5833 21.9167H8V23.4167H10.5833Z" fill="#B3B3B3"/>
<path d="M13.3334 17.0936C12.8193 15.3333 10.6667 14.4445 10.6667 11.1494C10.6667 7.85441 13.3334 6 15.5555 6C18.4255 6 20.7521 8.30548 20.7521 11.1494C20.7521 12.4183 20.0416 14.0701 19.0843 15.3431C18.3833 16.2751 18.3589 17.921 19.3269 18.5712L23.1088 21.1111C23.5155 21.4386 23.9999 22.2379 23.9999 22.7539V24.6667H15.5555" stroke="#B3B3B3" stroke-width="1.5"/>
</svg>
