<svg width="32" height="32" viewBox="0 0 32 32" fill="none" xmlns="http://www.w3.org/2000/svg">
<path d="M8.06989 6.14153L7.54965 5.61916C7.02942 5.09678 6.18904 5.11018 5.68214 5.61916L5.6688 5.63255C5.14856 6.15493 5.14856 6.99876 5.6688 7.50774L6.18904 8.03012C6.70927 8.55249 7.53632 8.55249 8.05655 8.03012L8.06989 8.01672C8.59013 7.50774 8.59013 6.65051 8.06989 6.14153V6.14153ZM4.01471 14.6603H2.6541C1.92043 14.6603 1.3335 15.2496 1.3335 15.9863V15.9997C1.3335 16.7364 1.92043 17.3257 2.6541 17.3257H4.00138C4.74838 17.3391 5.33532 16.7497 5.33532 16.0131V15.9997C5.33532 15.2496 4.74838 14.6603 4.01471 14.6603ZM16.0202 1.33301H16.0068C15.2598 1.33301 14.6729 1.92235 14.6729 2.65904V3.94488C14.6729 4.68156 15.2598 5.27091 15.9935 5.27091H16.0068C16.7538 5.2843 17.3408 4.69496 17.3408 3.95827V2.65904C17.3408 1.92235 16.7538 1.33301 16.0202 1.33301V1.33301ZM26.3449 5.63255C25.8246 5.11018 24.9842 5.11018 24.464 5.61916L23.9438 6.14153C23.4235 6.66391 23.4235 7.50774 23.9438 8.01672L23.9571 8.03012C24.4773 8.55249 25.3177 8.55249 25.8246 8.03012L26.3449 7.50774C26.8651 6.98537 26.8651 6.15493 26.3449 5.63255V5.63255ZM23.9304 25.8578L24.4507 26.3802C24.9709 26.9026 25.8113 26.9026 26.3315 26.3802C26.8518 25.8578 26.8518 25.014 26.3315 24.4916L25.8113 23.9692C25.2911 23.4469 24.4507 23.4603 23.9438 23.9692C23.4102 24.505 23.4102 25.3354 23.9304 25.8578ZM26.6783 15.9863V15.9997C26.6783 16.7364 27.2653 17.3257 27.9989 17.3257H29.3462C30.0799 17.3257 30.6668 16.7364 30.6668 15.9997V15.9863C30.6668 15.2496 30.0799 14.6603 29.3462 14.6603H27.9989C27.2653 14.6603 26.6783 15.2496 26.6783 15.9863ZM16.0068 7.96314C11.5915 7.96314 8.00319 11.5662 8.00319 15.9997C8.00319 20.4332 11.5915 24.0362 16.0068 24.0362C20.4222 24.0362 24.0105 20.4332 24.0105 15.9997C24.0105 11.5662 20.4222 7.96314 16.0068 7.96314ZM15.9935 30.6663H16.0068C16.7405 30.6663 17.3274 30.077 17.3274 29.3403V28.0545C17.3274 27.3178 16.7405 26.7284 16.0068 26.7284H15.9935C15.2598 26.7284 14.6729 27.3178 14.6729 28.0545V29.3403C14.6729 30.077 15.2598 30.6663 15.9935 30.6663ZM5.6688 26.3668C6.18904 26.8892 7.02942 26.8892 7.54965 26.3668L8.06989 25.8444C8.59013 25.322 8.57679 24.4782 8.06989 23.9692L8.05655 23.9558C7.53632 23.4335 6.69593 23.4335 6.1757 23.9558L5.65546 24.4782C5.14856 25.014 5.14856 25.8444 5.6688 26.3668Z" fill="white"/>
</svg>
